<svg xmlns="http://www.w3.org/2000/svg" width="30" height="30" fill="none"><path fill="url(#a)" d="M21.25 5H8.75C5 5 2.5 6.875 2.5 11.25v4.45c0 .463.475.75.888.563a6.92 6.92 0 0 1 4.125-.513c3.287.587 5.7 3.637 5.612 6.975a6.4 6.4 0 0 1-.225 1.537c-.1.388.213.75.612.75h7.738c3.75 0 6.25-1.875 6.25-6.25V11.25C27.5 6.875 25 5 21.25 5M15 18.125a3.126 3.126 0 0 1 0-6.25 3.126 3.126 0 0 1 0 6.25m9.063-.625a.944.944 0 0 1-.938.938.944.944 0 0 1-.937-.938v-5c0-.512.425-.937.937-.937s.938.425.938.937z"/><path fill="url(#b)" d="M6.25 17.5c-2.762 0-5 2.238-5 5 0 .938.262 1.825.725 2.575A4.96 4.96 0 0 0 6.25 27.5a4.96 4.96 0 0 0 4.275-2.425c.463-.75.725-1.637.725-2.575 0-2.762-2.238-5-5-5m2.463 4.587L6.05 24.55a.95.95 0 0 1-.638.25.93.93 0 0 1-.662-.275l-1.237-1.237a.943.943 0 0 1 0-1.326.943.943 0 0 1 1.325 0l.6.6 2-1.85a.944.944 0 0 1 1.324.05.944.944 0 0 1-.05 1.325"/><defs><linearGradient id="a" x1="3" x2="38.878" y1="24.612" y2="-16.223" gradientUnits="userSpaceOnUse"><stop offset=".138" stop-color="#FFB23F"/><stop offset=".467" stop-color="#FAD8A5"/></linearGradient><linearGradient id="b" x1="12.768" x2="-12.925" y1="90.093" y2="88.057" gradientUnits="userSpaceOnUse"><stop offset=".252" stop-color="#40B4A6"/><stop offset=".638" stop-color="#A6D8D2"/></linearGradient></defs></svg>