<svg xmlns="http://www.w3.org/2000/svg" width="104" height="30" fill="none"><g clip-path="url(#a)"><path fill="#000" d="M99.755.38H4.217C2.282.38.714 1.926.714 3.835V26.17c0 1.909 1.568 3.456 3.503 3.456h95.538c1.935 0 3.504-1.547 3.504-3.456V3.836c0-1.909-1.569-3.457-3.504-3.457"/><path fill="#A7A9AC" d="M99.755 30H4.217C2.071 30 .33 28.281.33 26.164V3.836C.329 1.72 2.071 0 4.217 0h95.538c2.146 0 3.888 1.719 3.888 3.836v22.328c0 2.117-1.742 3.836-3.888 3.836M4.217.759c-1.723 0-3.119 1.377-3.119 3.077v22.328c0 1.695 1.4 3.077 3.12 3.077h95.537c1.718 0 3.119-1.381 3.119-3.077V3.836c0-1.7-1.401-3.077-3.12-3.077z"/><path fill="#fff" d="m34.724 8.53-.432 1.395h-.94l1.6-4.928h1.163l1.624 4.928h-.978l-.45-1.396zm1.43-.68-.395-1.213c-.095-.3-.175-.637-.251-.923h-.015c-.075.286-.147.628-.237.923l-.384 1.213zM39.102 6.365l.584 1.808c.104.314.175.6.247.89h.023c.067-.29.148-.571.247-.89l.58-1.808h.954l-1.377 3.56h-.897l-1.344-3.56h.988zM45.368 9.073c0 .323.014.637.057.857h-.821l-.066-.394h-.024c-.214.277-.594.473-1.068.473-.727 0-1.135-.52-1.135-1.058 0-.89.807-1.354 2.141-1.344V7.55c0-.234-.095-.622-.736-.622-.356 0-.726.107-.968.262l-.176-.586c.266-.159.736-.313 1.306-.313 1.158 0 1.49.726 1.49 1.508v1.278zm-.888-.886c-.645-.009-1.258.127-1.258.666 0 .35.228.51.518.51.37 0 .631-.234.717-.492.023-.065.023-.13.023-.196v-.492zM47.11 5.855c-.303 0-.502-.22-.502-.483 0-.276.208-.492.512-.492a.49.49 0 0 1 .513.492c0 .263-.2.483-.513.483zm-.45 4.07v-3.56h.911v3.56zM48.881 4.73h.912v5.2h-.912zM53.914 9.073c0 .323.014.637.057.857h-.822l-.066-.394h-.024c-.213.277-.593.473-1.068.473-.726 0-1.135-.52-1.135-1.058 0-.89.807-1.354 2.141-1.344V7.55c0-.234-.094-.622-.73-.622-.357 0-.727.107-.97.262l-.175-.586c.266-.159.736-.313 1.306-.313 1.153 0 1.49.726 1.49 1.508v1.278zm-.888-.886c-.646-.009-1.258.127-1.258.666 0 .35.228.51.517.51.37 0 .632-.234.717-.492.024-.065.024-.13.024-.196v-.492zM55.2 4.73h.912v2.127h.014c.223-.342.617-.572 1.159-.572.883 0 1.51.726 1.505 1.808 0 1.28-.822 1.916-1.638 1.916-.466 0-.883-.178-1.14-.613h-.014l-.043.534h-.778c.014-.244.028-.637.028-.993V4.73zm.912 3.729q.002.112.024.21a.83.83 0 0 0 .807.628c.57 0 .92-.445.92-1.17 0-.628-.303-1.139-.91-1.139a.84.84 0 0 0-.808.656 1 1 0 0 0-.028.234v.576zM59.862 4.73h.911v5.2h-.911zM62.735 8.398c.023.642.531.923 1.11.923.423 0 .717-.066 1.002-.16l.133.614c-.313.131-.74.225-1.258.225-1.173 0-1.861-.707-1.861-1.799 0-.988.608-1.915 1.766-1.915s1.557.95 1.557 1.733c0 .168-.014.3-.028.379h-2.4219999999999997m1.585-.628c.01-.328-.142-.87-.75-.87-.565 0-.802.505-.836.87zM69.68 10.01c-1.016 0-1.809-.69-1.809-1.837s.779-1.887 1.866-1.887 1.794.744 1.794 1.826c0 1.307-.935 1.893-1.847 1.893h-.009zm.028-.652c.518 0 .883-.496.883-1.222 0-.558-.251-1.2-.873-1.2s-.907.624-.907 1.214c0 .688.346 1.208.888 1.208zM72.604 7.429c0-.408-.014-.754-.028-1.059h.793l.042.534h.024c.161-.276.555-.613 1.158-.613s1.282.402 1.282 1.526V9.93h-.911V7.92c0-.51-.195-.899-.689-.899-.36 0-.612.258-.712.525a.9.9 0 0 0-.043.286V9.93h-.911V7.429zM80.072 5.452v.913h.869v.675h-.87v1.564c0 .44.12.656.466.656.161 0 .252-.01.356-.038l.014.68a2 2 0 0 1-.66.093c-.341 0-.612-.107-.783-.29-.2-.206-.29-.534-.29-1.002V7.035h-.512v-.674h.513v-.665l.897-.249zM81.952 4.73h.912v2.122h.014c.109-.168.266-.309.45-.403.186-.103.4-.159.632-.159.613 0 1.258.403 1.258 1.541V9.93h-.911V7.925c0-.51-.195-.909-.698-.909a.76.76 0 0 0-.712.506.8.8 0 0 0-.038.272V9.93h-.912v-5.2zM87.16 8.398c.024.642.532.923 1.111.923.423 0 .717-.066 1.002-.16l.133.614c-.314.131-.74.225-1.258.225-1.173 0-1.861-.707-1.861-1.799 0-.988.607-1.915 1.766-1.915 1.158 0 1.557.95 1.557 1.733 0 .168-.014.3-.029.379H87.16m1.586-.628c.01-.328-.142-.87-.75-.87-.565 0-.802.505-.836.87zM23.388 14.707c-.024-2.44 2.022-3.625 2.117-3.681-1.158-1.668-2.958-1.897-3.589-1.916-1.51-.155-2.972.89-3.741.89s-1.97-.876-3.243-.853c-1.642.029-3.175.965-4.02 2.417-1.738 2.97-.442 7.33 1.224 9.733.836 1.176 1.809 2.487 3.081 2.44 1.244-.05 1.71-.782 3.214-.782s1.928.783 3.229.755c1.338-.024 2.179-1.18 2.981-2.366a9.9 9.9 0 0 0 1.367-2.74c-.033-.01-2.597-.974-2.625-3.901M20.928 7.536c.67-.829 1.13-1.953 1.002-3.096-.968.042-2.184.66-2.881 1.47-.618.713-1.173 1.884-1.03 2.98 1.091.08 2.207-.543 2.91-1.358M41.4 23.55h-1.738l-.95-2.95h-3.304l-.907 2.95h-1.69l3.276-10.042h2.022zm-2.973-4.187-.859-2.623q-.135-.402-.513-1.892h-.028q-.15.64-.484 1.892l-.846 2.623h2.735zM49.826 19.84q0 1.85-1.011 2.919c-.603.637-1.353.95-2.25.95q-1.452 0-2.085-1.025h-.028v3.813h-1.633v-7.808q0-1.161-.062-2.384h1.434l.09 1.147h.033q.813-1.298 2.474-1.297c.864 0 1.59.337 2.165 1.011q.868 1.014.868 2.665m-1.661.061c0-.702-.162-1.288-.485-1.742a1.67 1.67 0 0 0-1.42-.717q-.604 0-1.096.394a1.83 1.83 0 0 0-.64 1.035c-.053.201-.077.36-.077.492v1.208q-.001.789.49 1.33c.327.366.754.544 1.276.544q.92.002 1.434-.698c.342-.469.513-1.082.513-1.85M58.267 19.84q0 1.85-1.011 2.919c-.603.637-1.353.95-2.25.95-.964 0-1.662-.341-2.085-1.025h-.028v3.813h-1.629v-7.808q.001-1.161-.061-2.384h1.433l.09 1.147h.034q.813-1.298 2.473-1.297 1.296 0 2.165 1.011.87 1.014.869 2.665m-1.662.061c0-.702-.161-1.288-.484-1.742a1.67 1.67 0 0 0-1.42-.717q-.605 0-1.096.394a1.83 1.83 0 0 0-.641 1.035 2 2 0 0 0-.076.492v1.208q-.002.789.489 1.33c.328.366.75.544 1.277.544q.92.002 1.434-.698c.342-.469.512-1.082.512-1.85M67.705 20.736c0 .852-.3 1.55-.907 2.084-.664.585-1.585.88-2.772.88q-1.644.001-2.64-.623l.38-1.34c.717.427 1.5.643 2.36.643q.919 0 1.433-.408.513-.414.513-1.096 0-.611-.423-1.03-.421-.422-1.405-.778-2.672-.984-2.673-2.88c0-.825.314-1.504.936-2.029q.932-.792 2.492-.791 1.389 0 2.307.477l-.408 1.312q-.863-.465-1.947-.464-.86 0-1.343.417-.407.374-.408.909 0 .597.465.984.405.356 1.481.777 1.312.52 1.932 1.223.618.702.617 1.742M73.093 17.518H71.3v3.517q0 1.341.954 1.34.436.002.722-.075l.042 1.223c-.318.117-.745.178-1.267.178q-.97 0-1.51-.581c-.36-.39-.546-1.04-.546-1.954v-3.648h-1.073v-1.209h1.073v-1.325l1.6-.478v1.803h1.795v1.209zM81.202 19.874q-.001 1.671-.964 2.74-1.012 1.101-2.687 1.1c-1.116 0-1.937-.35-2.573-1.058q-.96-1.056-.959-2.665 0-1.686.987-2.754.99-1.074 2.664-1.073c1.115 0 1.941.351 2.597 1.059q.937 1.03.935 2.65m-1.69.051c0-.665-.147-1.241-.437-1.719q-.513-.865-1.462-.866c-.632 0-1.154.29-1.496.866-.294.478-.436 1.059-.436 1.747s.142 1.242.436 1.72q.528.864 1.481.866c.637 0 1.111-.295 1.463-.88.304-.488.45-1.064.45-1.734M86.5 17.729a3 3 0 0 0-.513-.043q-.86.002-1.329.642c-.27.38-.408.852-.408 1.429v3.798H82.62l.015-4.96q0-1.25-.062-2.281h1.42l.061 1.386h.043c.17-.477.446-.861.816-1.147a2 2 0 0 1 1.178-.389c.152 0 .285.01.408.028zM93.792 19.588c0 .29-.02.53-.057.73h-4.89c.019.717.256 1.26.707 1.64q.619.506 1.6.506 1.083 0 1.98-.342l.256 1.12q-1.04.449-2.464.449c-1.134 0-2.032-.333-2.677-.993q-.971-.99-.973-2.66c0-1.115.303-2 .906-2.727.632-.772 1.491-1.161 2.564-1.161s1.861.389 2.402 1.162q.647.926.646 2.28m-1.553-.416q.016-.717-.318-1.237c-.28-.445-.717-.67-1.3-.67q-.798.001-1.296.656-.408.52-.48 1.25z"/></g><defs><clipPath id="a"><path fill="#fff" d="M.33 0h103.308v30H.33z"/></clipPath></defs></svg>