<svg xmlns="http://www.w3.org/2000/svg" xml:space="preserve" width="200" height="200" fill="#1C274C" stroke="#1C274C" viewBox="0 0 512 512"><path d="M486.881 282.188h-9.086v-51.841C477.795 108.048 378.299 8.551 256 8.551S34.205 108.048 34.205 230.347v51.841h-9.086C11.268 282.188 0 293.456 0 307.307v102.614c0 13.851 11.268 25.119 25.119 25.119h10.405c3.354 9.93 12.752 17.102 23.8 17.102h17.102c13.851 0 25.119-11.268 25.119-25.119V290.205c0-13.851-11.268-25.119-25.119-25.119H59.324c-3.203 0-6.266.609-9.086 1.707v-36.446c0-113.458 92.304-205.762 205.762-205.762s205.762 92.304 205.762 205.762v36.446a25 25 0 0 0-9.086-1.707h-17.102c-13.851 0-25.119 11.268-25.119 25.119v136.818c0 13.851 11.268 25.119 25.119 25.119h17.102c11.048 0 20.446-7.172 23.8-17.102h10.405c13.851 0 25.119-11.268 25.119-25.119V307.307c0-13.851-11.268-25.119-25.119-25.119zM34.205 419.006h-9.086c-5.01 0-9.086-4.076-9.086-9.086V307.307c0-5.011 4.076-9.086 9.086-9.086h9.086zm25.119-137.887h17.102c5.01 0 9.086 4.076 9.086 9.086v136.818c0 5.01-4.076 9.086-9.086 9.086H59.324c-5.01 0-9.086-4.076-9.086-9.086V290.205c0-5.01 4.076-9.086 9.086-9.086zm402.438 145.904c0 5.01-4.076 9.086-9.086 9.086h-17.102c-5.01 0-9.086-4.076-9.086-9.086V290.205c0-5.011 4.076-9.086 9.086-9.086h17.102c5.01 0 9.086 4.076 9.086 9.086zm34.205-17.102c0 5.01-4.076 9.086-9.086 9.086h-9.086V298.221h9.086c5.01 0 9.086 4.076 9.086 9.086z"/><path d="M350.063 213.779h-11.165c-2.829-5.093-8.26-8.551-14.489-8.551h-34.205c-6.228 0-11.659 3.458-14.489 8.551H161.937c-13.851 0-25.119 11.268-25.119 25.119V478.33c0 13.851 11.268 25.119 25.119 25.119h188.125c13.851 0 25.119-11.268 25.119-25.119V238.898c.001-13.851-11.268-25.119-25.118-25.119zm-60.393 8.016c0-.294.239-.534.534-.534h34.205c.295 0 .534.24.534.534v53.43l-13.19-8.794a8.01 8.01 0 0 0-8.894 0l-13.19 8.794v-53.43zm69.479 256.535h-.001c0 5.01-4.076 9.086-9.086 9.086H161.937c-5.01 0-9.086-4.076-9.086-9.086V238.898c0-5.01 4.076-9.086 9.086-9.086h111.699v60.392a8.014 8.014 0 0 0 12.463 6.67l21.207-14.138 21.207 14.138a8.01 8.01 0 0 0 8.231.398 8.02 8.02 0 0 0 4.234-7.068v-60.392h9.086c5.01 0 9.086 4.076 9.086 9.086z"/><path d="M179.04 247.983a8.017 8.017 0 0 0-8.017 8.017v205.228a8.017 8.017 0 0 0 16.034 0V256a8.02 8.02 0 0 0-8.017-8.017zM298.756 333.495h-51.307a8.017 8.017 0 0 0 0 16.034h51.307a8.017 8.017 0 0 0 0-16.034zM315.858 367.699h-85.511a8.017 8.017 0 0 0 0 16.034h85.511a8.017 8.017 0 0 0 0-16.034z"/></svg>