<svg xmlns="http://www.w3.org/2000/svg" width="30" height="30" fill="none"><path fill="url(#a)" d="M20.938 4.45V2.5A.944.944 0 0 0 20 1.563a.944.944 0 0 0-.937.937v1.875h-8.125V2.5A.944.944 0 0 0 10 1.563a.944.944 0 0 0-.937.937v1.95C5.687 4.763 4.05 6.775 3.8 9.762a.63.63 0 0 0 .625.663h21.15c.363 0 .663-.312.625-.663-.25-2.987-1.887-5-5.262-5.312"/><path fill="url(#b)" d="M23.75 18.75c-2.762 0-5 2.238-5 5 0 .938.262 1.825.725 2.575a4.96 4.96 0 0 0 4.275 2.425 4.96 4.96 0 0 0 4.275-2.425c.463-.75.725-1.637.725-2.575 0-2.762-2.238-5-5-5m2.587 4.462-2.662 2.463a.95.95 0 0 1-.637.25.93.93 0 0 1-.663-.275l-1.238-1.237a.943.943 0 0 1 0-1.326.943.943 0 0 1 1.325 0l.6.6 2-1.85a.944.944 0 0 1 1.325.05.944.944 0 0 1-.05 1.325"/><path fill="url(#c)" d="M25 12.3H5c-.687 0-1.25.563-1.25 1.25v7.7C3.75 25 5.625 27.5 10 27.5h6.163c.862 0 1.462-.837 1.187-1.65-.25-.725-.463-1.525-.463-2.1 0-3.788 3.088-6.875 6.875-6.875.363 0 .726.025 1.075.087a1.244 1.244 0 0 0 1.425-1.224v-2.175A1.275 1.275 0 0 0 25 12.3M11.513 22.762a1.31 1.31 0 0 1-.888.363c-.325 0-.65-.137-.887-.363a1.31 1.31 0 0 1-.363-.887c0-.325.137-.65.363-.887.125-.113.25-.2.412-.263a1.25 1.25 0 0 1 1.362.262c.226.238.363.563.363.888s-.137.65-.363.887m0-4.375-.188.15a1 1 0 0 1-.225.113.8.8 0 0 1-.225.075 2 2 0 0 1-.25.025c-.325 0-.65-.137-.887-.363a1.31 1.31 0 0 1-.363-.887c0-.325.137-.65.363-.887a1.26 1.26 0 0 1 1.137-.338q.112.02.225.075.112.038.225.112l.188.15c.225.238.362.563.362.888s-.137.65-.363.887m4.374 0a1.31 1.31 0 0 1-.887.363c-.325 0-.65-.137-.887-.363a1.31 1.31 0 0 1-.363-.887c0-.325.137-.65.363-.887.475-.463 1.312-.463 1.774 0 .226.237.363.562.363.887s-.137.65-.363.887"/><defs><linearGradient id="a" x1="29.605" x2="-26.086" y1="65.898" y2="54.743" gradientUnits="userSpaceOnUse"><stop offset=".252" stop-color="#59A49E"/><stop offset=".638" stop-color="#A6D8D2"/></linearGradient><linearGradient id="b" x1="30.268" x2="4.575" y1="91.343" y2="89.307" gradientUnits="userSpaceOnUse"><stop offset=".252" stop-color="#59A49E"/><stop offset=".638" stop-color="#A6D8D2"/></linearGradient><linearGradient id="c" x1="4.2" x2="30.489" y1="27.196" y2="-8.28" gradientUnits="userSpaceOnUse"><stop offset=".138" stop-color="#FFB23F"/><stop offset=".467" stop-color="#FAD8A5"/></linearGradient></defs></svg>