<svg xmlns="http://www.w3.org/2000/svg" width="17" height="22" fill="none"><path fill="#222" d="M16.997 20.782 15.504 5.394a.65.65 0 0 0-.19-.404.56.56 0 0 0-.39-.163h-2.806v-.692a4.08 4.08 0 0 0-1.087-2.712C10.355.707 9.447.307 8.502.307s-1.853.4-2.528 1.116a4.08 4.08 0 0 0-1.087 2.712v.692H2.08a.56.56 0 0 0-.391.163.65.65 0 0 0-.19.404L.002 20.782a.68.68 0 0 0 .148.49.6.6 0 0 0 .198.155.55.55 0 0 0 .238.054h15.829a.55.55 0 0 0 .237-.055.6.6 0 0 0 .197-.154.683.683 0 0 0 .147-.49M6.055 4.135c0-.703.257-1.377.716-1.874a2.36 2.36 0 0 1 1.73-.776c.65 0 1.272.28 1.731.776.46.497.717 1.17.717 1.874v.692H6.055zm-4.82 16.08L2.605 6.094h2.28v1.394a.66.66 0 0 0 .17.448c.11.118.259.185.414.185a.56.56 0 0 0 .413-.185.66.66 0 0 0 .172-.448V6.093h4.894v1.394a.66.66 0 0 0 .171.448c.11.118.259.185.414.185a.56.56 0 0 0 .413-.185.66.66 0 0 0 .171-.448V6.093h2.28l1.37 14.123z"/></svg>