<svg xmlns="http://www.w3.org/2000/svg" width="30" height="30" fill="none"><path fill="url(#a)" d="M15 23.125v1.1c0 2.337-.937 3.275-3.287 3.275H5.775A3.27 3.27 0 0 1 2.5 24.225v-5.937c0-2.35.938-3.288 3.275-3.288h1.1v4.375a3.745 3.745 0 0 0 3.75 3.75z"/><path fill="url(#b)" d="M21.25 16.875v1.087a3.29 3.29 0 0 1-3.288 3.288h-5.937c-2.338 0-3.275-.937-3.275-3.288v-5.937a3.27 3.27 0 0 1 3.275-3.275h1.1v4.375a3.745 3.745 0 0 0 3.75 3.75z"/><path fill="url(#c)" d="M27.5 5.775v5.938c0 2.35-.937 3.287-3.288 3.287h-5.937C15.938 15 15 14.063 15 11.713V5.775c0-2.338.938-3.275 3.275-3.275h5.938c2.35 0 3.287.938 3.287 3.275"/><defs><linearGradient id="a" x1="16.898" x2="-15.218" y1="105.741" y2="103.196" gradientUnits="userSpaceOnUse"><stop offset=".252" stop-color="#59A49E"/><stop offset=".638" stop-color="#A6D8D2"/></linearGradient><linearGradient id="b" x1="9" x2="31.5" y1="21" y2=".5" gradientUnits="userSpaceOnUse"><stop offset=".138" stop-color="#FFB23F"/><stop offset=".467" stop-color="#FAD8A5"/></linearGradient><linearGradient id="c" x1="29.398" x2="-2.718" y1="93.241" y2="90.696" gradientUnits="userSpaceOnUse"><stop offset=".252" stop-color="#59A49E"/><stop offset=".638" stop-color="#A6D8D2"/></linearGradient></defs></svg>