<svg xmlns="http://www.w3.org/2000/svg" width="17" height="18" fill="none"><path stroke="#E2342D" stroke-linecap="round" stroke-linejoin="round" stroke-width="1.6" d="m10.577 11.822.703 1.608s3.164.714 3.164 2.412c0 1.206-1.406 1.206-1.406 1.206h-3.75l-1.846-1.09"/><path stroke="#E2342D" stroke-linecap="round" stroke-linejoin="round" stroke-width="1.6" d="m6.36 11.822-.704 1.608s-3.164.714-3.164 2.412c0 1.206 1.406 1.206 1.406 1.206h1.7l1.845-1.09L9.7 14.435"/><path stroke="#E2342D" stroke-linecap="round" stroke-linejoin="round" stroke-width="1.6" d="M1.085 12.627s1.758-.402 2.813-.804c1.054-5.628 4.218-5.226 4.57-5.226.351 0 3.515-.402 4.57 5.226 1.054.402 2.812.804 2.812.804M8.467 4.846c.906 0 1.64-.78 1.64-1.743S9.374 1.36 8.468 1.36s-1.64.78-1.64 1.743c0 .962.734 1.743 1.64 1.743"/></svg>