<svg xmlns="http://www.w3.org/2000/svg" width="800" height="800" fill="none" viewBox="0 0 24 24"><g fill-rule="evenodd" clip-rule="evenodd"><path fill="#1C274C" d="M1.25 4A2.75 2.75 0 0 1 4 1.25h4a.75.75 0 0 1 0 1.5H4c-.69 0-1.25.56-1.25 1.25v4a.75.75 0 0 1-1.5 0z"/><path fill="#BFBFBF" d="M20 1.25A2.75 2.75 0 0 1 22.75 4v4a.75.75 0 0 1-1.5 0V4c0-.69-.56-1.25-1.25-1.25h-4a.75.75 0 0 1 0-1.5z"/><path fill="#1C274C" d="M22.75 20A2.75 2.75 0 0 1 20 22.75h-4a.75.75 0 0 1 0-1.5h4c.69 0 1.25-.56 1.25-1.25v-4a.75.75 0 0 1 1.5 0z"/><path fill="#BFBFBF" d="M1.25 20A2.75 2.75 0 0 0 4 22.75h4a.75.75 0 0 0 0-1.5H4c-.69 0-1.25-.56-1.25-1.25v-4a.75.75 0 0 0-1.5 0z"/></g></svg>