<svg xmlns="http://www.w3.org/2000/svg" width="21" height="21" fill="none"><path fill="red" d="M20.793 8.531c.134.703.207 1.438.207 2.205C21 16.735 16.903 21 10.715 21c-1.407 0-2.8-.27-4.101-.798-1.3-.528-2.482-1.301-3.477-2.276a10.5 10.5 0 0 1-2.322-3.407 10.31 10.31 0 0 1 0-8.038 10.5 10.5 0 0 1 2.322-3.407A10.7 10.7 0 0 1 6.614.798C7.914.271 9.308 0 10.715 0c2.893 0 5.31 1.043 7.165 2.737l-3.02 2.96v-.008c-1.124-1.05-2.551-1.588-4.145-1.588-3.535 0-6.409 2.927-6.409 6.393 0 3.464 2.874 6.397 6.409 6.397 3.208 0 5.391-1.797 5.84-4.265h-5.84V8.53h10.08z"/></svg>