<svg xmlns="http://www.w3.org/2000/svg" width="104" height="30" fill="none"><g clip-path="url(#a)"><path fill="#000" d="M100.117.38H4.579c-1.935 0-3.503 1.547-3.503 3.456V26.17c0 1.909 1.568 3.456 3.503 3.456h95.538c1.935 0 3.504-1.547 3.504-3.456V3.836c0-1.909-1.569-3.457-3.504-3.457"/><path fill="#A7A9AC" d="M100.117 30H4.579C2.433 30 .691 28.281.691 26.164V3.836C.69 1.72 2.433 0 4.579 0h95.538c2.145 0 3.888 1.719 3.888 3.836v22.328c0 2.117-1.743 3.836-3.888 3.836M4.579.759C2.856.759 1.46 2.136 1.46 3.836v22.328c0 1.695 1.4 3.077 3.12 3.077h95.537c1.718 0 3.119-1.381 3.119-3.077V3.836c0-1.7-1.401-3.082-3.119-3.082H4.579z"/><path fill="#fff" d="M52.809 16.407c-1.795 0-3.262 1.35-3.262 3.204s1.463 3.204 3.262 3.204 3.261-1.358 3.261-3.204c0-1.845-1.462-3.204-3.261-3.204m0 5.148c-.983 0-1.833-.801-1.833-1.944s.85-1.944 1.833-1.944 1.832.787 1.832 1.944-.85 1.944-1.832 1.944m-7.112-5.148c-1.794 0-3.261 1.35-3.261 3.204s1.462 3.204 3.261 3.204 3.262-1.358 3.262-3.204c0-1.845-1.463-3.204-3.262-3.204m0 5.148c-.983 0-1.832-.801-1.832-1.944s.85-1.944 1.832-1.944 1.833.787 1.833 1.944-.85 1.944-1.833 1.944m-8.46-4.164v1.358h3.295c-.1.764-.356 1.321-.75 1.71-.48.473-1.23.993-2.545.993a3.593 3.593 0 0 1-3.617-3.616c0-2 1.585-3.616 3.617-3.616 1.097 0 1.894.426 2.483.97l.973-.96c-.826-.778-1.918-1.373-3.456-1.373-2.782 0-5.118 2.234-5.118 4.974s2.336 4.974 5.118 4.974c1.5 0 2.635-.487 3.518-1.395.911-.9 1.192-2.16 1.192-3.18 0-.314-.024-.61-.076-.848h-4.639zm34.595 1.054c-.27-.717-1.097-2.038-2.782-2.038s-3.062 1.298-3.062 3.204c0 1.794 1.376 3.204 3.223 3.204 1.49 0 2.35-.9 2.706-1.42l-1.106-.725c-.37.534-.874.885-1.6.885s-1.244-.328-1.576-.97l4.344-1.77-.147-.365zm-4.43 1.068a1.77 1.77 0 0 1 1.7-1.87c.565 0 1.044.282 1.206.68l-2.9 1.19zm-3.532 3.105h1.43v-9.414h-1.43v9.419zm-2.335-5.499h-.048c-.318-.374-.935-.716-1.709-.716-1.624 0-3.114 1.41-3.114 3.218s1.49 3.19 3.114 3.19c.774 0 1.391-.343 1.71-.727h.047v.46c0 1.226-.665 1.882-1.733 1.882-.874 0-1.415-.618-1.638-1.143l-1.244.51c.356.849 1.306 1.893 2.877 1.893 1.671 0 3.086-.97 3.086-3.34v-5.751H61.53v.52zm-1.638 4.431c-.983 0-1.81-.815-1.81-1.93s.827-1.953 1.81-1.953c.982 0 1.733.825 1.733 1.953 0 1.13-.765 1.93-1.733 1.93M78.51 13.2h-3.413v9.42h1.424v-3.57h1.99c1.58 0 3.133-1.129 3.133-2.923s-1.553-2.922-3.134-2.922zm.038 4.539h-2.027V14.51h2.027c1.064 0 1.671.87 1.671 1.615s-.602 1.616-1.67 1.616zm8.807-1.354c-1.03 0-2.099.45-2.54 1.443l1.263.52c.27-.52.774-.689 1.3-.689.736 0 1.486.436 1.5 1.213v.099a3.2 3.2 0 0 0-1.485-.366c-1.363 0-2.749.74-2.749 2.122 0 1.26 1.116 2.07 2.369 2.07.959 0 1.486-.426 1.818-.923h.048v.726h1.377v-3.61c0-1.673-1.263-2.605-2.896-2.605zm-.171 5.162c-.465 0-1.116-.23-1.116-.801 0-.726.812-1.007 1.51-1.007.627 0 .921.13 1.3.313-.108.872-.873 1.49-1.694 1.49zm8.08-4.956-1.633 4.084h-.047L91.89 16.59h-1.534l2.54 5.705-1.448 3.176h1.486l3.917-8.88zm-12.832 6.023h1.424v-9.41h-1.424v9.42z"/><path fill="#5BC9F4" d="M8.748 5.705c-.224.23-.352.59-.352 1.058V23.41c0 .468.133.824.352 1.058l.057.056 9.452-9.325v-.22L8.805 5.653l-.057.056z"/><path fill="url(#b)" d="m21.41 18.309-3.153-3.11v-.22l3.152-3.11.072.042 3.731 2.093c1.068.6 1.068 1.574 0 2.174L21.48 18.27l-.07.043z"/><path fill="url(#c)" d="m21.48 18.267-3.223-3.18-9.51 9.381c.352.366.931.413 1.586.047z"/><path fill="url(#d)" d="M21.48 11.906 10.333 5.658c-.655-.365-1.234-.323-1.585.047l9.509 9.382z"/><path fill="#fff" d="M35.789 6.239a1.63 1.63 0 0 0-1.083-.412c-.94 0-1.661.763-1.661 1.705 0 .941.721 1.695 1.661 1.695.807 0 1.396-.464 1.434-1.194h-1.277v-.52h1.97c0 1.555-.84 2.29-2.127 2.29a2.25 2.25 0 0 1-2.269-2.271c0-1.256.992-2.277 2.27-2.277.593 0 1.13.225 1.518.586zM40.318 5.307v.557h-2.056v1.415h1.795v.562h-1.795v1.34h2.118v.557h-2.725V5.307h2.663M44.248 5.307v.566h-1.362v3.865h-.613V5.873h-1.362v-.566zM47.159 5.307v4.43h-.608v-4.43zM51.294 5.307v.566H49.93v3.864h-.612V5.873h-1.363v-.566zM55.571 5.255a2.26 2.26 0 0 1 2.284 2.276c0 1.26-.997 2.272-2.284 2.272a2.25 2.25 0 0 1-2.269-2.272c0-1.255.992-2.276 2.27-2.276m0 3.967c.945 0 1.671-.754 1.671-1.69 0-.937-.721-1.7-1.67-1.7-.95 0-1.662.758-1.662 1.7 0 .94.721 1.69 1.661 1.69M61.439 9.738l-2.046-3.34v3.34h-.608V5.307h.598l2.027 3.311V5.307h.608v4.43z"/></g><defs><linearGradient id="b" x1="24.519" x2="6.056" y1="15.086" y2="15.086"><stop stop-color="#FEE000"/><stop offset=".42" stop-color="#FBBC0E"/><stop offset=".78" stop-color="#F9A318"/><stop offset="1" stop-color="#F99B1C"/></linearGradient><linearGradient id="c" x1="19.729" x2="2.601" y1="16.815" y2="34.175"><stop stop-color="#EF4547"/><stop offset="1" stop-color="#C6186D"/></linearGradient><linearGradient id="d" x1="2.286" x2="16.271" y1="-3.845" y2="10.329"><stop stop-color="#279E6F"/><stop offset=".04" stop-color="#2B9F6E"/><stop offset=".46" stop-color="#52B16B"/><stop offset=".8" stop-color="#6BBC69"/><stop offset="1" stop-color="#74C169"/></linearGradient><clipPath id="a"><path fill="#fff" d="M.69 0H104v30H.69z"/></clipPath></defs></svg>