<svg xmlns="http://www.w3.org/2000/svg" fill="none" viewBox="0 0 32 32"><path fill="#1C274C" fill-rule="evenodd" d="M26.917 27.914V10.349L16.504 4.253l-10.42 6.142v17.519h5.555v-6.877c0-1.729 1.399-3.13 3.125-3.13h3.472a3.127 3.127 0 0 1 3.125 3.13v6.877zM27.958 30c.576 0 1.042-.467 1.042-1.043V9.75c0-.37-.196-.713-.516-.9L17.027 2.143a1.04 1.04 0 0 0-1.054.001L4.513 8.9c-.318.188-.513.53-.513.9v19.158C4 29.533 4.466 30 5.042 30h7.639c.575 0 1.041-.467 1.041-1.043v-7.92c0-.576.467-1.043 1.042-1.043h3.472c.575 0 1.042.467 1.042 1.043v7.92c0 .576.466 1.043 1.042 1.043z" clip-rule="evenodd"/></svg>