<svg xmlns="http://www.w3.org/2000/svg" xmlns:xlink="http://www.w3.org/1999/xlink" width="42" height="42"><defs><rect id="a" width="42" height="42" x="0" y="0" rx="21"/></defs><g fill="none" fill-rule="evenodd"><mask id="b" fill="#fff"><use xlink:href="#a"/></mask><use xlink:href="#a" fill="#E9A438"/><path fill="#FFF" d="M17.923 13a1.076 1.076 0 0 1 .761 1.837L12.523 21l6.163 6.163a1.076 1.076 0 1 1-1.523 1.522l-6.847-6.848a1.08 1.08 0 0 1-.312-.838 1.08 1.08 0 0 1 .312-.836l6.847-6.847c.196-.201.472-.316.761-.316m6.153 0c.248 0 .487.084.673.235l.088.08 6.848 6.848c.23.236.334.54.312.837.022.297-.082.601-.312.836l-6.849 6.85c-.195.2-.47.314-.76.314s-.566-.114-.76-.315a1.076 1.076 0 0 1 0-1.522L29.477 21l-6.163-6.163A1.076 1.076 0 0 1 24.076 13" mask="url(#b)"/></g></svg>