<svg xmlns="http://www.w3.org/2000/svg" width="17" height="17" fill="none"><path stroke="#E2342D" stroke-linecap="round" stroke-width="1.4" d="M12.804 16.088H1.987a.525.525 0 0 1-.525-.525V6.996c0-.29.235-.525.525-.525h2.42c.614 0 1.183-.322 1.499-.849l2.37-3.95a1.426 1.426 0 0 1 2.588 1.144l-.894 2.98a.525.525 0 0 0 .503.675h4A1.75 1.75 0 0 1 16.16 8.68l-1.67 6.12a1.75 1.75 0 0 1-1.686 1.288Z"/><path stroke="#E2342D" stroke-linecap="round" stroke-linejoin="round" stroke-width="1.4" d="M4.522 16.088V6.47"/></svg>