<svg xmlns="http://www.w3.org/2000/svg" xmlns:xlink="http://www.w3.org/1999/xlink" width="42" height="42"><defs><rect id="a" width="42" height="42" x="0" y="0" rx="21"/></defs><g fill="none" fill-rule="evenodd"><mask id="b" fill="#fff"><use xlink:href="#a"/></mask><use xlink:href="#a" fill="#1C274C"/><path fill="#FFF" d="M23.38 18.12a5 5 0 0 0-.48-.474.874.874 0 0 0-1.322-.02c-.375.397-.408 1.06-.075 1.502q.102.138.236.231c.09.085.18.168.261.262l.079.09c.991 1.128.695 3.066-.296 4.193l-4.226 4.81c-.993 1.125-2.598 1.125-3.591 0l-.08-.091c-.99-1.129-.99-2.957 0-4.086l1.868-2.125c.461-.386.56-1.125.221-1.65-.339-.526-.988-.639-1.45-.253v-.003l-.02.02q-.11.09-.197.21l-1.94 2.068c-1.824 2.088-1.824 5.461 0 7.55l.079.09c1.835 2.075 4.797 2.075 6.632 0l4.225-4.811c1.822-2.077 1.976-5.351.155-7.426zm.146.108 6.102-6.67-.078-.086c-1.838-1.963-4.807-1.963-6.645 0l-4.233 4.55c-1.827 1.963-1.928 4.8-.1 6.762l.077.082q.125.134.257.254a1 1 0 0 0 .222.194.855.855 0 0 0 1.068-.13c.29-.29.37-.751.196-1.135a2.1 2.1 0 0 0-.497-.63l-.077-.08c-.993-1.066-.616-2.614.377-3.68l4.235-4.548c.994-1.066 2.603-1.066 3.596 0l.08.083c.991 1.068.991 2.798 0 3.866l-1.865 2.005c-.448.351-.557 1.02-.246 1.515.31.494.929.635 1.4.32l.005.006.03-.028a1 1 0 0 0 .234-.233l1.965-1.948c1.828-1.974 1.828-5.164 0-7.138z" mask="url(#b)"/></g></svg>