<svg xmlns="http://www.w3.org/2000/svg" width="17" height="17" fill="none"><path fill="#000" stroke="#E2342D" stroke-width="1.4" d="m8.495 6.63-.11-.05h-.344l-.14.313v.002zm0 0-.241.107.178.4zm-.258.65L7.9 7.131l-.088-.039-.084.188zm0 0H7.9v.385m.336-.385-.336.385m0 0v.002zm.49-.148-.137.307zm0 0v.463zm.104-.888-.11-.049z"/><path stroke="#E2342D" stroke-linecap="round" stroke-linejoin="round" stroke-width="1.4" d="M1.357 12.523V4.417c0-.188.11-.358.283-.435l6.662-2.96a.48.48 0 0 1 .387 0l6.662 2.96a.48.48 0 0 1 .283.435v8.106c0 .188-.11.359-.283.435L8.69 15.92a.48.48 0 0 1-.387 0L1.64 12.96a.48.48 0 0 1-.283-.436"/><path stroke="#E2342D" stroke-linecap="round" stroke-linejoin="round" stroke-width="1.4" d="m4.926 2.522 6.856 3.047a.48.48 0 0 1 .283.434v2.864"/></svg>