<svg xmlns="http://www.w3.org/2000/svg" xml:space="preserve" fill="#fff" viewBox="0 0 64 64"><path d="M40.79 48.006 38.045 48c-4.211-.011-11.638-.031-14.906.005h-.001c-3.714 0-7.569-2.149-7.58-6.133-.012-4.054-.1-7.414-.194-10.971-.041-1.562-.083-3.179-.123-4.936-.135-6.167 2.16-9.435 6.82-9.711 2.673-.159 7.138-.262 11.375-.262 3.556 0 9.752.072 11.285.553 2.223.698 3.522 2.49 3.864 5.328.313 2.599.14 11.879.046 16.864-.026 1.407-.046 2.458-.046 2.892 0 3.815-3.133 6.377-7.795 6.377m-11.692-2.021c3.121 0 6.557.009 8.952.015l2.74.006c3.521 0 5.795-1.717 5.795-4.375 0-.438.02-1.503.046-2.93.087-4.585.266-14.126-.032-16.587-.322-2.684-1.568-3.374-2.478-3.659-.678-.213-3.883-.461-10.686-.461-4.202 0-8.62.101-11.257.258-3.527.209-5.05 2.575-4.938 7.671.038 1.753.081 3.368.122 4.927.094 3.569.183 6.94.195 11.018.008 3.037 3.287 4.139 5.489 4.139 1.486-.016 3.677-.022 6.052-.022"/><path d="M35.659 40.666a1 1 0 0 1-.804-.404c-.685-.921-1.39-1.823-2.095-2.725l-.501-.642c-.786-1.007-1.486-2.001-2.163-2.962a81 81 0 0 0-1.851-2.557c-.622-.815-1.198-1.246-1.713-1.282-.945-.076-2.131 1.114-3.392 2.364q-.36.358-.733.72l-.99.961c-.667.65-1.319 1.285-2.017 1.937l-.572.528c-.488.447-.949.869-1.388 1.334a1 1 0 1 1-1.456-1.372c.49-.519 1-.986 1.493-1.437l.558-.514c.687-.643 1.33-1.268 1.987-1.909l.997-.967q.364-.353.714-.701c1.591-1.577 3.093-3.065 4.938-2.938 1.13.078 2.165.753 3.164 2.064a82 82 0 0 1 1.896 2.619c.693.985 1.348 1.915 2.104 2.884l.5.64c.716.916 1.432 1.83 2.125 2.765a1 1 0 0 1-.801 1.594"/><path d="M47.187 39.364a1 1 0 0 1-.667-.255c-.917-.822-2.791-2.406-4.296-3.68l-1.479-1.254c-1.659-1.418-3.186-.316-5.774 2.524l-.544.592a1.001 1.001 0 0 1-1.463-1.365l.528-.575c1.917-2.103 5.123-5.622 8.552-2.699l1.473 1.249c1.515 1.282 3.4 2.877 4.338 3.718a1 1 0 0 1-.668 1.745M35.338 28.792c-1.714 0-3.244-1.25-3.72-3.04-.448-1.681.197-3.303 1.643-4.131 1.409-.807 3.426-.825 4.721-.004 1.407.891 2.064 2.703 1.564 4.308-.51 1.631-2.195 2.81-4.1 2.867zm.354-5.8c-.51 0-1.033.133-1.438.364-.944.541-.808 1.496-.704 1.881.199.749.844 1.555 1.787 1.555h.05c.898-.027 1.96-.538 2.248-1.463.236-.756-.068-1.607-.725-2.022-.318-.203-.751-.315-1.218-.315"/></svg>