<svg xmlns="http://www.w3.org/2000/svg" xml:space="preserve" fill="#1C274C" viewBox="0 0 64 64"><path d="M29 58h6v2h-6zM32 22c-4.962 0-9 4.037-9 9s4.038 9 9 9 9-4.037 9-9-4.038-9-9-9m0 16c-3.86 0-7-3.141-7-7s3.14-7 7-7 7 3.141 7 7-3.14 7-7 7"/><path d="m36.447 30.105-6-3a1 1 0 0 0-.973.044A1 1 0 0 0 29 28v6a1.003 1.003 0 0 0 1 1 1 1 0 0 0 .447-.106l6-3a.998.998 0 0 0 0-1.789M31 32.382v-2.764L33.764 31zM29 42h2v6h-2zM33 42h2v6h-2zM44.707 44.293l-3-3-1.414 1.414L42.586 45l-2.293 2.293 1.414 1.414 3-3a1 1 0 0 0 0-1.414M24.707 42.707l-1.414-1.414-3 3a1 1 0 0 0 0 1.414l3 3 1.414-1.414L22.414 45z"/><path d="M59 25h-1.025C57.447 11.125 46.001 0 32 0S6.553 11.125 6.025 25H5c-2.757 0-5 2.243-5 5v8c0 2.757 2.243 5 5 5h1.184A3 3 0 0 0 9 45c.352 0 .686-.072 1-.184V59c0 2.757 2.243 5 5 5h34c2.757 0 5-2.243 5-5V44.816c.314.112.648.184 1 .184a3 3 0 0 0 2.816-2H59c2.757 0 5-2.243 5-5v-8c0-2.757-2.243-5-5-5M6 41H5c-1.654 0-3-1.346-3-3v-8c0-1.654 1.346-3 3-3h1zm4 1a1.001 1.001 0 0 1-2 0V26a1.001 1.001 0 0 1 2 0zm0-18.816A3 3 0 0 0 9 23c-.287 0-.559.053-.822.129A23.8 23.8 0 0 1 10 16.422zM32 2c6.597 0 12.581 2.677 16.923 7H15.077C19.419 4.677 25.403 2 32 2m3.528 17.882a1 1 0 0 0 1.026-.05L39 18.202l2.445 1.63a1 1 0 0 0 1.027.05A1 1 0 0 0 43 19v-4h5v39H16V15h19v4a1 1 0 0 0 .528.882M37 17.132V11h4v6.132l-1.445-.964a1 1 0 0 0-1.11 0zM52 26v33c0 1.654-1.346 3-3 3H15c-1.654 0-3-1.346-3-3V14c0-1.654 1.346-3 3-3h20v2H15a1 1 0 0 0-1 1v41a1 1 0 0 0 1 1h34a1 1 0 0 0 1-1V14a1 1 0 0 0-1-1h-6v-2h6c1.654 0 3 1.346 3 3zm2-9.578a23.8 23.8 0 0 1 1.822 6.707A3 3 0 0 0 55 23c-.352 0-.686.072-1 .184zM56 42a1.001 1.001 0 0 1-2 0V26a1.001 1.001 0 0 1 2 0zm6-4c0 1.654-1.346 3-3 3h-1V27h1c1.654 0 3 1.346 3 3z"/><path d="M27 50h2v2h-2zM31 50h2v2h-2zM35 50h2v2h-2z"/></svg>