<svg xmlns="http://www.w3.org/2000/svg" width="800" height="800" fill="none" viewBox="0 0 24 24"><g fill="#1C274C" fill-rule="evenodd" clip-rule="evenodd" opacity=".5"><path d="M15.75 6a.75.75 0 0 1-.75.75H3a.75.75 0 0 1 0-1.5h12a.75.75 0 0 1 .75.75M13.75 10a.75.75 0 0 1-.75.75H3a.75.75 0 0 1 0-1.5h10a.75.75 0 0 1 .75.75M9.75 14a.75.75 0 0 1-.75.75H3a.75.75 0 0 1 0-1.5h6a.75.75 0 0 1 .75.75M8.75 18a.75.75 0 0 1-.75.75H3a.75.75 0 0 1 0-1.5h5a.75.75 0 0 1 .75.75"/></g><path fill="#1C274C" d="M17 7.25a.75.75 0 0 1 .75.75A3.25 3.25 0 0 0 21 11.25a.75.75 0 0 1 0 1.5c-1.257 0-2.4-.488-3.25-1.286V16.5a3.25 3.25 0 1 1-1.5-2.74V8a.75.75 0 0 1 .75-.75"/></svg>