<svg xmlns="http://www.w3.org/2000/svg" width="20" height="24" fill="none" viewBox="0 0 20 22"><path fill="#666" d="M2.475 3.066C3.656 1.803 5.16.943 6.799.596a7.94 7.94 0 0 1 4.879.513c1.543.684 2.862 1.84 3.79 3.326a9.5 9.5 0 0 1 1.424 5.016c.005 2.182-.734 4.292-2.08 5.933l4.69 5.017a.62.62 0 0 1 .177.438.65.65 0 0 1-.169.442.6.6 0 0 1-.19.135.54.54 0 0 1-.633-.143l-4.69-5.016a8.2 8.2 0 0 1-4.33 2.13 7.95 7.95 0 0 1-4.718-.716c-1.476-.718-2.727-1.874-3.605-3.332A9.5 9.5 0 0 1 0 9.45a9.5 9.5 0 0 1 .64-3.458 9 9 0 0 1 1.835-2.927m.815 11.897a7.15 7.15 0 0 0 3.732 2.13 6.85 6.85 0 0 0 4.21-.444 7.4 7.4 0 0 0 3.27-2.87 8.2 8.2 0 0 0 1.227-4.329 8.2 8.2 0 0 0-1.228-4.328 7.4 7.4 0 0 0-3.27-2.87 6.85 6.85 0 0 0-4.209-.445 7.15 7.15 0 0 0-3.732 2.13C1.925 5.401 1.158 7.383 1.158 9.45s.767 4.05 2.132 5.513"/></svg>