<svg xmlns="http://www.w3.org/2000/svg" width="19" height="19" fill="none"><path stroke="#E2342D" stroke-width="1.4" d="M7.589 1.534a1.695 1.695 0 0 1 2.506 0l.865.95c.34.372.828.575 1.332.551l1.283-.06a1.695 1.695 0 0 1 1.772 1.772l-.06 1.283c-.024.504.179.993.552 1.332l.95.865a1.695 1.695 0 0 1 0 2.506l-.95.865c-.373.34-.575.828-.552 1.332l.06 1.283a1.695 1.695 0 0 1-1.772 1.772l-1.283-.06a1.7 1.7 0 0 0-1.332.552l-.865.95a1.695 1.695 0 0 1-2.506 0l-.865-.95a1.7 1.7 0 0 0-1.332-.552l-1.283.06a1.695 1.695 0 0 1-1.772-1.772l.06-1.283a1.7 1.7 0 0 0-.552-1.332l-.95-.865a1.695 1.695 0 0 1 0-2.506l.95-.865c.373-.34.576-.828.552-1.332l-.06-1.283a1.695 1.695 0 0 1 1.772-1.772l1.283.06c.504.024.992-.179 1.332-.552z"/><path stroke="#E2342D" stroke-linecap="round" stroke-linejoin="round" stroke-width="1.4" d="m6.3 9.48 1.695 1.695 3.39-3.39"/></svg>