<svg xmlns="http://www.w3.org/2000/svg" width="18" height="22" fill="none"><path fill="#222" d="M9.272 11.769h.13c.54.012 1.076-.1 1.572-.33.495-.229.939-.57 1.3-.999 1.569-1.89 1.307-5.13 1.28-5.44a4.7 4.7 0 0 0-.489-2.26 4.34 4.34 0 0 0-1.487-1.69A4.3 4.3 0 0 0 9.385.437h-.069a4.3 4.3 0 0 0-2.191.596A4.34 4.34 0 0 0 5.62 2.726 4.7 4.7 0 0 0 5.125 5c-.029.31-.289 3.55 1.28 5.44.36.43.802.77 1.297 1s1.03.341 1.57.329m-3.059-6.66v-.034c.134-3.123 2.208-3.458 3.095-3.458h.05c1.1.026 2.969.505 3.095 3.458a.1.1 0 0 0 0 .034c0 .031.289 2.993-1.006 4.552-.264.31-.589.555-.951.716a2.5 2.5 0 0 1-1.146.216h-.042a2.5 2.5 0 0 1-1.144-.216 2.7 2.7 0 0 1-.95-.716C5.931 8.11 6.21 5.136 6.212 5.109z"/><path fill="#222" d="M17.708 17.145v-.12c-.024-.86-.078-2.878-1.846-3.523l-.04-.013a11.4 11.4 0 0 1-3.382-1.647.53.53 0 0 0-.413-.104.5.5 0 0 0-.203.083.6.6 0 0 0-.157.16.6.6 0 0 0-.09.444q.02.117.08.215.061.098.152.165c1.14.817 2.396 1.43 3.719 1.817.95.36 1.055 1.446 1.083 2.438a8.449 8.449 0 0 1-.09 1.455 14.2 14.2 0 0 1-7.18 1.786 14.3 14.3 0 0 1-7.186-1.79 8 8 0 0 1-.089-1.345v-.11c.029-.993.134-2.077 1.084-2.438A12.4 12.4 0 0 0 6.868 12.8a.6.6 0 0 0 .22-.378.62.62 0 0 0-.093-.435.55.55 0 0 0-.35-.24.52.52 0 0 0-.408.09 11.3 11.3 0 0 1-3.38 1.647l-.042.013c-1.767.65-1.82 2.666-1.845 3.524a1 1 0 0 1 0 .11v.012c-.023.666.047 1.33.207 1.974.041.113.115.21.212.274a14.6 14.6 0 0 0 7.952 2.082 14.66 14.66 0 0 0 7.95-2.082.57.57 0 0 0 .213-.274 7.5 7.5 0 0 0 .204-1.973"/></svg>