<svg xmlns="http://www.w3.org/2000/svg" fill="none" class="design-iconfont" viewBox="0 0 28 29"><path fill="#00A500" d="M14 .5a14 14 0 1 0 0 28 14 14 0 1 0 0-28"/><path fill="#fff" fill-rule="evenodd" d="M13.998 6.66h.004c4.322 0 7.838 3.518 7.838 7.84 0 4.324-3.516 7.84-7.838 7.84a7.78 7.78 0 0 1-4.312-1.294l-3.014.963.977-2.913A7.8 7.8 0 0 1 6.16 14.5c0-4.324 3.516-7.84 7.838-7.84m3.027 12.178c.598-.129 1.35-.572 1.54-1.106.188-.535.188-.991.133-1.088-.044-.077-.15-.128-.307-.204l-.13-.063c-.23-.115-1.35-.669-1.563-.742-.207-.079-.405-.05-.562.17l-.089.125c-.19.267-.372.523-.524.687-.138.147-.364.165-.553.087l-.07-.029c-.299-.12-.963-.389-1.768-1.105-.678-.603-1.138-1.354-1.272-1.58-.131-.227-.017-.36.087-.483l.005-.006c.066-.082.13-.15.196-.219a5 5 0 0 0 .145-.159l.024-.028c.1-.116.161-.186.23-.332.078-.152.023-.308-.033-.424a73 73 0 0 1-.511-1.226l-.194-.47c-.152-.364-.267-.378-.497-.387a5 5 0 0 0-.263-.01c-.3 0-.613.088-.802.282l-.02.02c-.242.246-.782.795-.782 1.888 0 1.091.772 2.148.92 2.348l.01.016q.014.018.05.07c.295.427 1.723 2.496 3.854 3.378 1.801.747 2.336.677 2.746.59" clip-rule="evenodd"/></svg>